<?xml version="1.0" encoding="UTF-8"?>
<svg id="_图层_1" data-name="图层_1" xmlns="http://www.w3.org/2000/svg" viewBox="0 0 311.41 172.93">
  <defs>
    <style>
      .cls-1 {
        fill: #fff;
      }
    </style>
  </defs>
  <path class="cls-1" d="M130.09,81.5L78.98,0,0,125.96l22.81,1.36,18.04-27.24,54.47.34-52.42,72.51h24.85l62.25-88.36c.65-.91.68-2.12.09-3.07ZM102.28,79.66h-47.46c-1.18,0-1.9-1.31-1.27-2.31l23.65-37.39c.59-.93,1.95-.93,2.54,0l23.81,37.38c.64,1.01-.08,2.32-1.27,2.32Z"/>
  <path class="cls-1" d="M131.4,59.02h16.72l16.02,25.8c.23.37.77.38,1.01.02l17.27-25.82h19.23l14.86,21.08c.43.61,1.33.6,1.75-.01l14.37-21.07h17.36l-22.5,31.6c-.44.62-.45,1.45-.02,2.08l23.11,33.59h-17.19l-14.54-21.2c-.42-.61-1.33-.62-1.76-.02l-15.19,21.22h-18.13l23.83-32.65c.46-.63.47-1.48.01-2.12l-13.85-19.52c-.47-.66-1.46-.66-1.92.01l-19.39,28.23v26.04h-14.55v-26.04l-27.4-41.23h.89Z"/>
  <path class="cls-1" d="M297.24,102.42s15.32-6.25,12.13-24.89c-1.92-8.43-7.79-16.85-16.22-18.51h-36.25v67.28h15.06v-22.09h10.47l12.89,22.09h16.09l-14.17-23.88ZM289.2,90.3h-15.96c-.64,0-1.15-.52-1.15-1.15v-15.64c0-.74.6-1.34,1.34-1.34h15.13s6.89,2.36,6.64,9.06c-.26,6.7-6,9.07-6,9.07Z"/>
</svg>